<?xml version="1.0" standalone="no"?>
<!DOCTYPE svg PUBLIC "-//W3C//DTD SVG 20010904//EN"
 "http://www.w3.org/TR/2001/REC-SVG-20010904/DTD/svg10.dtd">
<svg version="1.0" xmlns="http://www.w3.org/2000/svg"
 width="2048.000000pt" height="2048.000000pt" viewBox="0 0 2048.000000 2048.000000"
 preserveAspectRatio="xMidYMid meet">

<g transform="translate(0.000000,2048.000000) scale(0.100000,-0.100000)"
fill="#000000" stroke="none">
<path d="M9805 19613 c-364 -21 -549 -38 -820 -74 -1998 -267 -3858 -1179
-5299 -2599 -559 -551 -1000 -1101 -1409 -1756 -140 -225 -407 -705 -407 -732
0 -11 3097 -2418 3107 -2415 4 1 34 75 68 165 213 564 485 1053 845 1519 153
198 276 337 484 544 465 464 932 799 1509 1080 935 457 1959 629 3017 509
1053 -120 2018 -550 2818 -1257 l114 -100 1341 1341 1342 1342 -70 63 c-337
307 -720 608 -1088 855 -1367 918 -2899 1421 -4602 1512 -168 9 -816 11 -950
3z"/>
<path d="M10240 10130 l0 -1810 2530 0 2530 0 -5 -22 c-72 -324 -110 -460
-191 -686 -292 -809 -865 -1551 -1585 -2054 l-105 -73 65 -50 c36 -28 176
-136 311 -240 263 -204 714 -554 1244 -965 181 -140 352 -273 380 -296 28 -22
157 -122 286 -222 129 -100 352 -272 494 -383 l259 -201 194 194 c318 316 539
569 787 898 788 1048 1327 2276 1601 3645 146 730 208 1378 207 2160 0 682
-39 1138 -158 1873 l-7 42 -4418 0 -4419 0 0 -1810z"/>
</g>
</svg>
